<svg viewBox="0 -23 512.00003 512" xmlns="http://www.w3.org/2000/svg"><path d="m59.152344 143.484375c2.476562-1.417969 3.738281-4.242187 3.195312-7.042969-.894531-4.621094-1.367187-9.394531-1.367187-14.277344 0-41.359374 33.53125-74.886718 74.890625-74.886718h.175781c2.726563.007812 5.152344-1.59375 6.234375-4.097656 9.035156-20.933594 29.714844-35.664063 53.882812-35.996094 33.238282-.460938 61.441407 27.511718 61.441407 60.75v329.507812c0 33.242188-28.203125 61.214844-61.441407 60.753906-24.167968-.332031-44.847656-15.0625-53.882812-35.996093-1.082031-2.503907-3.511719-4.105469-6.234375-4.097657-.058594 0-.117187 0-.175781 0-41.363282 0-74.890625-33.527343-74.890625-74.890624 0-4.882813.472656-9.652344 1.363281-14.273438.542969-2.800781-.71875-5.625-3.195312-7.042969-30.921876-17.710937-51.773438-51.015625-51.773438-89.203125 0-38.195312 20.851562-71.496094 51.777344-89.207031zm0 0" fill="#ff646f"/><path d="m172.496094 422.199219c-1.082032-2.503907-3.511719-4.105469-6.234375-4.097657-.058594 0-.117188 0-.175781 0-41.363282 0-74.890626-33.527343-74.890626-74.890624 0-4.882813.472657-9.652344 1.363282-14.273438.542968-2.800781-.71875-5.625-3.195313-7.042969-30.921875-17.710937-51.773437-51.015625-51.773437-89.203125 0-38.191406 20.851562-71.496094 51.773437-89.203125 2.476563-1.417969 3.738281-4.246093 3.195313-7.046875-.890625-4.621094-1.363282-9.394531-1.363282-14.273437 0-41.363281 33.527344-74.890625 74.890626-74.890625h.171874c2.726563.007812 5.15625-1.59375 6.238282-4.097656 7.175781-16.625 21.699218-29.328126 39.480468-34.023438-5.070312-1.347656-10.371093-2.046875-15.8125-1.972656-24.171874.335937-44.847656 15.0625-53.882812 35.996094-1.082031 2.503906-3.511719 4.105468-6.238281 4.097656-.058594 0-.113281 0-.171875 0-41.363282 0-74.890625 33.527344-74.890625 74.890625 0 4.878906.472656 9.652343 1.363281 14.273437.542969 2.800782-.71875 5.625-3.195312 7.046875-30.921876 17.707031-51.773438 51.011719-51.773438 89.203125 0 38.1875 20.851562 71.492188 51.773438 89.203125 2.476562 1.417969 3.738281 4.242188 3.195312 7.042969-.890625 4.621094-1.363281 9.394531-1.363281 14.273438 0 41.363281 33.527343 74.890624 74.890625 74.890624h.175781c2.726563-.007812 5.152344 1.59375 6.234375 4.097657 9.035156 20.933593 29.714844 35.664062 53.882812 35.996093 5.441407.074219 10.746094-.625 15.816407-1.972656-17.785157-4.695312-32.308594-17.398437-39.484375-34.023437zm0 0" fill="#ff4755"/><path d="m454.050781 143.484375c-2.476562-1.417969-3.738281-4.242187-3.195312-7.042969.894531-4.621094 1.363281-9.394531 1.363281-14.277344 0-41.359374-33.527344-74.886718-74.886719-74.886718-.058593 0-.117187 0-.175781 0-2.726562.007812-5.152344-1.59375-6.234375-4.097656-9.035156-20.933594-29.714844-35.664063-53.882813-35.996094-33.238281-.460938-60.4375 27.511718-60.4375 60.75v329.507812c0 33.242188 27.199219 61.214844 60.4375 60.753906 24.167969-.332031 44.847657-15.0625 53.882813-35.996093 1.082031-2.503907 3.507813-4.105469 6.234375-4.097657h.175781c41.359375 0 74.890625-33.527343 74.890625-74.890624 0-4.882813-.472656-9.652344-1.367187-14.273438-.539063-2.800781.722656-5.625 3.199219-7.042969 30.921874-17.710937 51.773437-51.015625 51.773437-89.203125-.003906-38.195312-20.851563-71.496094-51.777344-89.207031zm0 0" fill="#ff646f"/><path d="m286.816406 397.441406c0-3.160156 0-326.328125 0-329.507812 0-27.785156 19.007813-51.875 44.660156-58.769532-4.617187-1.222656-9.453124-1.914062-14.4375-1.980468-33.238281-.460938-60.4375 27.511718-60.4375 60.75v329.507812c0 33.242188 27.199219 61.214844 60.4375 60.753906 4.984376-.070312 9.820313-.757812 14.4375-1.980468-25.652343-6.894532-44.660156-30.984375-44.660156-58.773438zm0 0" fill="#ff4755"/><path d="m375.003906 232.742188c0 65.390624-53.011718 118.402343-118.402344 118.402343-65.390624 0-118.402343-53.011719-118.402343-118.402343 0-65.390626 53.011719-118.398438 118.402343-118.398438 65.390626 0 118.402344 53.007812 118.402344 118.398438zm0 0" fill="#60b8ff"/><path d="m175.84375 232.742188c0-58.984376 43.136719-107.886719 99.578125-116.902344-6.128906-.980469-12.414063-1.496094-18.820313-1.496094-65.390624 0-118.402343 53.007812-118.402343 118.398438 0 65.394531 53.011719 118.402343 118.402343 118.402343 6.40625 0 12.691407-.515625 18.820313-1.496093-56.441406-9.015626-99.578125-57.921876-99.578125-116.90625zm0 0" fill="#22a7ff"/><path d="m0 232.980469c0 39.207031 21.054688 75.703125 54.996094 95.40625-9.433594 50.777343 29.601562 97.34375 80.71875 97.527343 22.4375 50.976563 94.671875 54.730469 121.03125 2.855469 26.164062 51.484375 98.410156 48.539063 121.035156-2.855469 51.105469-.183593 90.152344-46.738281 80.71875-97.527343 28.394531-16.480469 47.839844-44.355469 53.390625-76.578125.703125-4.09375-2.042969-7.984375-6.136719-8.691406-4.101562-.703126-7.984375 2.042968-8.691406 6.136718-4.78125 27.757813-21.523438 51.78125-45.972656 66.027344-1 .457031-13.40625 8.367188-25.886719 11.03125-2.28125-9.402344-8.308594-17.671875-16.867187-22.625-3.597657-2.082031-8.199219-.855469-10.28125 2.738281-2.082032 3.597657-.855469 8.199219 2.742187 10.28125 13.832031 8.007813 13.796875 28-.007813 35.988281-3.59375 2.078126-4.824218 6.683594-2.742187 10.277344 2.082031 3.597656 6.683594 4.824219 10.277344 2.742188 9.035156-5.226563 15.261719-14.132813 17.230469-24.179688 6.59375-1.066406 13.246093-3.4375 18.8125-5.875 4.480468 38.535156-24.164063 72.035156-61.558594 74.980469 1.195312-5.09375 2.140625-11.09375 2.140625-17.351563 0-4.152343-3.367188-7.519531-7.523438-7.519531s-7.523437 3.367188-7.523437 7.519531c0 10.460938-2.886719 18.5-5.878906 26.515626-14.234376 32.421874-57.027344 42.4375-83.671876 16.15625-10.222656-10.082032-16.085937-24.015626-16.085937-38.226563v-38.996094c23.375-1.363281 46.296875-9.089843 66.386719-23.699219 96.144531-70.09375 49.976562-221.15625-66.386719-227.71875v-39.09375c0-23.769531 15.777344-44.863281 38.371094-51.300781 3.996093-1.136719 6.308593-5.300781 5.171875-9.296875-1.136719-3.996094-5.304688-6.308594-9.296875-5.171875-18.476563 5.265625-33.394531 18.144531-41.800781 34.664063-26.25-51.515625-98.421876-48.359375-121 2.925781-51.101563.1875-90.152344 46.738281-80.71875 97.527344-33.9375 19.703125-54.992188 56.199219-54.992188 95.40625zm367.363281-7.46875h-41.785156c-.300781-16.503907-1.59375-32.570313-3.800781-47.761719 7.21875-4.375 14.035156-9.511719 20.355468-15.367188 14.796876 17.851563 23.65625 39.785157 25.230469 63.128907zm-221.132812 16.421875c-.007813-.113282-.019531-.226563-.027344-.335938-.027344-.347656-.046875-.695312-.070313-1.039062h41.78125c.300782 16.503906 1.59375 32.570312 3.800782 47.765625-7.214844 4.371093-14.03125 9.507812-20.355469 15.359375-14.75-17.800782-23.320313-39.433594-25.128906-61.75zm25.128906-79.550782c6.324219 5.855469 13.140625 10.992188 20.355469 15.363282-2.207032 15.195312-3.5 31.261718-3.800782 47.765625h-41.785156c1.550782-23.152344 10.34375-45.164063 25.230469-63.128907zm196.003906 78.175782c-1.515625 22.476562-9.851562 44.550781-25.230469 63.125-6.324218-5.851563-13.136718-10.988282-20.355468-15.359375 2.207031-15.195313 3.5-31.261719 3.800781-47.765625zm-167.0625-102.921875c-2.234375 7.597656-4.183593 15.621093-5.835937 23.988281-4.457032-3.042969-8.71875-6.425781-12.75-10.144531 5.714844-5.265625 11.867187-9.847657 18.585937-13.84375zm18.761719-8.878907c9.460938-3.3125 18.558594-5.550781 30.160156-6.324218v58.03125c-14.425781-.953125-28.269531-4.644532-40.964844-10.828125 2.667969-14.894531 6.296876-28.691407 10.804688-40.878907zm30.160156 66.777344v29.976563h-46.261718c.261718-13.910157 1.257812-27.460938 2.925781-40.378907 13.554687 5.980469 28.167969 9.523438 43.335937 10.402344zm0 45.023438v29.976562c-15.167968.878906-29.785156 4.421875-43.335937 10.40625-1.667969-12.921875-2.664063-26.472656-2.925781-40.382812zm63.972656 87.875c2.230469-7.597656 4.179688-15.617188 5.832032-23.988282 4.457031 3.042969 8.71875 6.425782 12.75 10.144532-5.773438 5.292968-11.746094 9.785156-18.582032 13.84375zm-18.761718 8.878906c-9.472656 3.433594-19.484375 5.613281-30.164063 6.328125v-58.035156c14.425781.953125 28.273438 4.644531 40.964844 10.828125-2.667969 14.894531-6.292969 28.691406-10.800781 40.878906zm-45.210938-51.707031v58.03125c-10.339844-.6875-20.449218-2.785157-30.164062-6.324219-4.507813-12.1875-8.132813-25.984375-10.800782-40.878906 12.695313-6.183594 26.539063-9.878906 40.964844-10.828125zm-48.921875 42.828125c-6.96875-4.140625-12.953125-8.671875-18.585937-13.839844 4.03125-3.722656 8.292968-7.105469 12.75-10.148438 1.652344 8.371094 3.601562 16.390626 5.835937 23.988282zm107.304688-47.492188c-13.550781-5.984375-28.167969-9.527344-43.335938-10.40625v-29.976562h46.265625c-.265625 13.910156-1.261718 27.460937-2.929687 40.382812zm-43.335938-55.429687v-29.976563c15.167969-.878906 29.78125-4.421875 43.335938-10.402344 1.667969 12.917969 2.664062 26.46875 2.925781 40.378907zm0-45.042969v-58.035156c10.269531.6875 20.1875 2.707031 30.164063 6.320312 4.507812 12.1875 8.132812 25.988282 10.800781 40.886719-12.695313 6.179687-26.539063 9.875-40.964844 10.828125zm67.4375-28.925781c-4.011719 3.695312-8.25 7.058593-12.679687 10.082031-1.640625-8.3125-3.574219-16.285156-5.789063-23.835938 6.402344 3.871094 12.5625 8.457032 18.46875 13.753907zm-243.414062-11.953125c2.277343 9.402344 8.304687 17.671875 16.867187 22.625 3.59375 2.082031 8.199219.855468 10.277344-2.738282 2.082031-3.597656.855469-8.199218-2.738281-10.28125-13.835938-8.007812-13.800781-28 .003906-35.988281 3.59375-2.078125 4.824219-6.679687 2.742187-10.277343-2.078124-3.59375-6.683593-4.824219-10.277343-2.742188-9.035157 5.226562-15.261719 14.132812-17.226563 24.179688-6.597656 1.066406-13.253906 3.441406-18.824218 5.878906-4.445313-38.503906 24.179687-71.972656 61.554687-74.921875-1.191406 5.078125-2.128906 11.054687-2.128906 17.285156 0 4.15625 3.367187 7.523437 7.523437 7.523437s7.523438-3.367187 7.523438-7.523437c0-51.382813 56.273437-75.433594 89.550781-42.609375 10.222656 10.082031 16.082031 24.015625 16.082031 38.226562v39.113282c-92.886718 5.386718-147.859375 106.960937-102.074218 187.644531 19.6875 34.863281 56.617187 61.109375 102.074218 63.75v39c0 14.214844-5.859375 28.148437-16.082031 38.230469-25.125 24.777344-67.660156 18.632812-83.878906-16.671875-.054688-.125-5.671875-12.503907-5.671875-26 0-4.15625-3.367188-7.523438-7.523438-7.523438s-7.523437 3.367188-7.523437 7.523438c0 6.257812.945312 12.253906 2.140625 17.347656-37.386719-2.945313-66.039063-36.4375-61.558594-74.976563 5.566406 2.433594 12.21875 4.804688 18.8125 5.871094 3.238281 16.53125 21.070312 32.558594 27.507812 21.441406 2.082032-3.597656.851563-8.199218-2.742187-10.28125-13.835937-8.003906-13.808594-27.996093-.003906-35.988281 3.59375-2.082031 4.820312-6.683593 2.738281-10.277343-2.078125-3.597657-6.683594-4.824219-10.277344-2.742188-8.558594 4.957031-14.585937 13.222656-16.867187 22.628906-25.125-5.367187-73.25-35.859375-73.25-93.335937 0-55.03125 45.277343-87.417969 73.25-93.390625zm0 0"/><path d="m400.796875 149.195312c-3.597656 2.082032-4.824219 6.683594-2.742187 10.28125 2.085937 3.601563 6.695312 4.816407 10.28125 2.738282 8.558593-4.957032 14.585937-13.222656 16.867187-22.625 23.859375 5.09375 63.710937 29.8125 71.859375 77.117187.632812 3.660157 3.8125 6.246094 7.40625 6.246094.421875 0 .851562-.035156 1.285156-.109375 4.09375-.707031 6.839844-4.597656 6.136719-8.691406-5.550781-32.222656-24.996094-60.097656-53.390625-76.578125 9.429688-50.777344-29.609375-97.339844-80.71875-97.527344-7.539062-17.121094-21.96875-30.402344-39.660156-36.472656-3.929688-1.351563-8.210938.746093-9.554688 4.671875-1.351562 3.929687.742188 8.210937 4.671875 9.558594 23.832031 8.175781 36.667969 31.972656 36.667969 54.808593 0 4.152344 3.367188 7.519531 7.519531 7.519531 4.15625 0 7.523438-3.367187 7.523438-7.519531 0-6.234375-.933594-12.207031-2.125-17.289062 37.371093 2.949219 66 36.417969 61.554687 74.921875-5.574218-2.4375-12.226562-4.808594-18.824218-5.878906-1.96875-10.046876-8.195313-18.953126-17.230469-24.179688-3.589844-2.078125-8.195313-.851562-10.277344 2.742188-2.078125 3.597656-.851563 8.199218 2.746094 10.277343 13.832031 8.007813 13.804687 27.996094.003906 35.988281zm0 0"/></svg>