<svg viewBox="0 0 496 496" xmlns="http://www.w3.org/2000/svg"><path d="m216 168c0 4.417969-3.582031 8-8 8s-8-3.582031-8-8 3.582031-8 8-8 8 3.582031 8 8zm0 0"/><path d="m136 168c0 4.417969-3.582031 8-8 8s-8-3.582031-8-8 3.582031-8 8-8 8 3.582031 8 8zm0 0"/><path d="m200 216h-16c0 8.824219-7.175781 16-16 16s-16-7.175781-16-16h-16c0 17.648438 14.351562 32 32 32s32-14.351562 32-32zm0 0"/><path d="m304 256v64.046875c-2.039062-.96875-4.121094-1.847656-6.289062-2.566406l-81.710938-27.25v-16.574219c17.679688-11.558594 30.910156-29.304688 36.710938-50.136719 19.816406-2.359375 35.289062-19.078125 35.289062-39.519531v-71.609375c0-61.964844-50.425781-112.390625-112.390625-112.390625-22.257813 0-43.824219 6.519531-62.34375 18.871094l-20.441406 13.625c-26.0625 5.992187-44.824219 29.398437-44.824219 56.296875v95.207031c0 20.441406 15.472656 37.160156 35.289062 39.519531 5.789063 20.839844 19.03125 38.578125 36.710938 50.136719v16.574219l-81.710938 27.25c-22.898437 7.625-38.289062 28.976562-38.289062 53.113281v93.40625h304v32h192v-240zm-74.921875 55.464844-16.964844 50.886718-32.265625-26.886718 30.3125-30.3125zm-70.664063 80.535156h19.160157l12.449219 56h-44.046876zm19.816407-16h-20.46875l-5.496094-16.480469 15.734375-13.105469 15.726562 13.105469zm77.433593-169.367188c.167969-2.199218.335938-4.394531.335938-6.632812v-38.527344c9.289062 3.3125 16 12.113282 16 22.527344 0 10.535156-6.871094 19.414062-16.335938 22.632812zm-191.664062-22.632812c0-10.414062 6.710938-19.214844 16-22.527344v38.527344c0 2.238281.167969 4.433594.335938 6.632812-9.464844-3.21875-16.335938-12.097656-16.335938-22.632812zm16-56v16.808594c-5.945312 1.214844-11.328125 3.855468-16 7.390625v-63.414063c0-19.832031 14.121094-37.058594 33.566406-40.945312l1.546875-.3125 23.023438-15.34375c15.894531-10.582032 34.375-16.183594 53.472656-16.183594 53.152344 0 96.390625 43.238281 96.390625 96.390625v39.816406c-4.671875-3.535156-10.054688-6.183593-16-7.390625v-16.816406h-10.742188c-27.050781 0-52.480468-10.527344-71.601562-29.65625l-5.65625-5.65625-5.65625 5.65625c-19.128906 19.128906-44.550781 29.65625-71.601562 29.65625zm16 72v-56.121094c26.769531-1.167968 51.921875-11.285156 72-28.917968 20.078125 17.632812 45.230469 27.75 72 28.917968v56.121094c0 39.703125-32.296875 72-72 72s-72-32.296875-72-72zm72 88c11.296875 0 22.0625-2.214844 32-6.113281v10.800781l-32 32-32-32v-10.800781c9.9375 3.898437 20.703125 6.113281 32 6.113281zm-42.160156 17.152344 30.3125 30.3125-32.265625 26.886718-16.964844-50.886718zm-109.839844 65.441406c0-17.242188 10.992188-32.496094 27.351562-37.945312l48.390626-16.128907 24.378906 73.128907 22.957031-19.128907 4.632813 13.90625-14.125 63.574219h-49.585938v-56h-16v56h-48zm256 77.40625v-56h-16v56h-49.585938l-14.125-63.574219 4.632813-13.90625 22.957031 19.128907 24.378906-73.128907 48.398438 16.136719c4.160156 1.382812 7.886719 3.574219 11.34375 6.191406v109.152344zm208 32h-160v-208h160zm0 0"/><path d="m336 288h128v16h-128zm0 0"/><path d="m336 320h128v16h-128zm0 0"/><path d="m384 352h-48v48h48zm-16 32h-16v-16h16zm0 0"/><path d="m400 352h64v16h-64zm0 0"/><path d="m400 384h64v16h-64zm0 0"/><path d="m384 416h-48v48h48zm-16 32h-16v-16h16zm0 0"/><path d="m400 416h64v16h-64zm0 0"/><path d="m400 448h64v16h-64zm0 0"/></svg>