<svg viewBox="0 0 512 512" xmlns="http://www.w3.org/2000/svg"><path d="m8.53125 469.332031c0 18.851563 15.285156 34.136719 34.136719 34.136719h426.664062c18.851563 0 34.136719-15.285156 34.136719-34.136719v-392.53125h-494.9375zm273.070312-273.066406h28.109376c1.160156-3.933594 2.726562-7.738281 4.675781-11.347656l-19.859375-19.859375 24.132812-24.128906 19.859375 19.855468c3.609375-1.949218 7.414063-3.515625 11.347657-4.675781v-28.109375h34.132812v28.109375c3.933594 1.160156 7.738281 2.726563 11.351562 4.675781l19.855469-19.855468 24.132813 24.128906-19.859375 19.859375c1.949219 3.609375 3.515625 7.414062 4.679687 11.347656h28.105469v34.136719h-28.105469c-1.164062 3.933594-2.730468 7.738281-4.679687 11.347656l19.859375 19.855469-24.132813 24.132812-19.855469-19.855469c-3.613281 1.949219-7.417968 3.515626-11.351562 4.675782v28.109375h-34.132812v-28.109375c-3.933594-1.160156-7.738282-2.726563-11.347657-4.675782l-19.859375 19.855469-24.132812-24.132812 19.859375-19.855469c-1.949219-3.613281-3.515625-7.414062-4.675781-11.351562h-28.109376zm-221.867187 119.46875h38.59375c.902344-2.535156 1.933594-5.015625 3.089844-7.441406l-27.304688-27.308594 36.207031-36.207031 27.304688 27.308594c2.425781-1.15625 4.910156-2.1875 7.441406-3.082032v-38.605468h51.199219v38.597656c2.535156.898437 5.019531 1.929687 7.441406 3.089844l27.308594-27.308594 36.207031 36.207031-27.308594 27.308594c1.160157 2.425781 2.1875 4.90625 3.082032 7.441406h38.605468v51.199219h-38.597656c-.898437 2.53125-1.929687 5.015625-3.089844 7.441406l27.308594 27.304688-36.207031 36.207031-27.308594-27.304688c-2.421875 1.15625-4.90625 2.183594-7.441406 3.078125v38.605469h-51.199219v-38.59375c-2.53125-.898437-5.015625-1.929687-7.441406-3.089844l-27.304688 27.304688-36.207031-36.207031 27.304688-27.304688c-1.15625-2.425781-2.183594-4.910156-3.078125-7.441406h-38.605469zm0 0" fill="#ffeb99"/><path d="m469.332031 8.53125h-426.664062c-18.851563 0-34.136719 15.285156-34.136719 34.136719v34.132812h494.9375v-34.132812c0-18.851563-15.285156-34.136719-34.136719-34.136719zm0 0" fill="#ff7956"/><path d="m101.417969 374.375-27.304688 27.308594 36.207031 36.207031 27.304688-27.308594c2.425781 1.160157 4.910156 2.191407 7.441406 3.089844v38.597656h51.199219v-38.609375c2.535156-.894531 5.015625-1.921875 7.441406-3.078125l27.308594 27.304688 36.207031-36.207031-27.308594-27.304688c1.160157-2.425781 2.191407-4.910156 3.089844-7.441406h38.597656v-51.199219h-38.605468c-.894532-2.535156-1.925782-5.015625-3.082032-7.441406l27.308594-27.308594-36.207031-36.207031-27.308594 27.308594c-2.425781-1.160157-4.90625-2.191407-7.441406-3.089844v-38.597656h-51.199219v38.605468c-2.53125.894532-5.015625 1.925782-7.441406 3.082032l-27.304688-27.308594-36.207031 36.207031 27.304688 27.308594c-1.160157 2.425781-2.191407 4.90625-3.089844 7.441406h-38.59375v51.199219h38.605469c.894531 2.53125 1.921875 5.015625 3.078125 7.441406zm69.25-75.707031c23.5625 0 42.664062 19.101562 42.664062 42.664062 0 23.566407-19.101562 42.667969-42.664062 42.667969-23.566407 0-42.667969-19.101562-42.667969-42.667969 0-23.5625 19.101562-42.664062 42.667969-42.664062zm0 0" fill="#ff9811"/><path d="m213.332031 341.332031c0 23.566407-19.101562 42.667969-42.664062 42.667969-23.566407 0-42.667969-19.101562-42.667969-42.667969 0-23.5625 19.101562-42.664062 42.667969-42.664062 23.5625 0 42.664062 19.101562 42.664062 42.664062zm0 0" fill="#ff6243"/><path d="m314.386719 241.75-19.859375 19.855469 24.132812 24.132812 19.859375-19.855469c3.609375 1.949219 7.414063 3.515626 11.347657 4.675782v28.109375h34.132812v-28.109375c3.933594-1.160156 7.738281-2.726563 11.351562-4.675782l19.855469 19.855469 24.132813-24.132812-19.859375-19.855469c1.949219-3.609375 3.515625-7.414062 4.679687-11.347656h28.105469v-34.136719h-28.105469c-1.164062-3.933594-2.730468-7.738281-4.679687-11.347656l19.859375-19.859375-24.132813-24.128906-19.855469 19.855468c-3.613281-1.949218-7.417968-3.515625-11.351562-4.675781v-28.109375h-34.132812v28.109375c-3.933594 1.160156-7.738282 2.726563-11.347657 4.675781l-19.859375-19.855468-24.132812 24.128906 19.859375 19.859375c-1.949219 3.609375-3.515625 7.414062-4.675781 11.347656h-28.109376v34.136719h28.109376c1.160156 3.933594 2.726562 7.738281 4.675781 11.347656zm52.546875-54.015625c14.136718 0 25.601562 11.460937 25.601562 25.597656 0 14.140625-11.464844 25.601563-25.601562 25.601563-14.140625 0-25.601563-11.460938-25.601563-25.601563 0-14.136719 11.464844-25.597656 25.601563-25.597656zm0 0" fill="#ff9811"/><path d="m392.535156 213.332031c0 14.140625-11.464844 25.601563-25.601562 25.601563-14.140625 0-25.601563-11.460938-25.601563-25.601563 0-14.136719 11.460938-25.597656 25.601563-25.597656 14.136718 0 25.601562 11.460937 25.601562 25.597656zm0 0" fill="#ff6243"/><g fill="#2d2d30"><path d="m469.332031 0h-426.664062c-23.554688.0273438-42.6406252 19.113281-42.667969 42.667969v426.664062c.0273438 23.554688 19.113281 42.640625 42.667969 42.667969h426.664062c23.554688-.027344 42.640625-19.113281 42.667969-42.667969v-426.664062c-.027344-23.554688-19.113281-42.6406252-42.667969-42.667969zm-426.664062 17.066406h426.664062c14.140625 0 25.601563 11.460938 25.601563 25.601563v25.597656h-477.867188v-25.597656c0-14.140625 11.460938-25.601563 25.601563-25.601563zm426.664062 477.867188h-426.664062c-14.140625 0-25.601563-11.460938-25.601563-25.601563v-384h477.867188v384c0 14.140625-11.460938 25.601563-25.601563 25.601563zm0 0"/><path d="m42.667969 34.132812h17.066406v17.066407h-17.066406zm0 0"/><path d="m76.800781 34.132812h17.066407v17.066407h-17.066407zm0 0"/><path d="m110.933594 34.132812h17.066406v17.066407h-17.066406zm0 0"/><path d="m170.667969 290.132812c-28.277344 0-51.199219 22.925782-51.199219 51.199219 0 28.277344 22.921875 51.199219 51.199219 51.199219 28.273437 0 51.199219-22.921875 51.199219-51.199219-.027344-28.265625-22.933594-51.171875-51.199219-51.199219zm0 85.335938c-18.851563 0-34.132813-15.285156-34.132813-34.136719 0-18.847656 15.28125-34.132812 34.132813-34.132812 18.851562 0 34.132812 15.285156 34.132812 34.132812 0 18.851563-15.28125 34.136719-34.132812 34.136719zm0 0"/><path d="m281.601562 307.199219h-28.527343l20.171875-20.171875c3.332031-3.332032 3.332031-8.734375 0-12.066406l-36.207032-36.207032c-3.332031-3.332031-8.734374-3.332031-12.066406 0l-20.171875 20.171875v-28.527343c0-4.710938-3.820312-8.53125-8.535156-8.53125h-51.199219c-4.710937 0-8.53125 3.820312-8.53125 8.53125v28.527343l-20.175781-20.171875c-3.332031-3.332031-8.734375-3.332031-12.066406 0l-36.207031 36.207032c-3.328126 3.332031-3.328126 8.734374 0 12.066406l20.175781 20.171875h-28.527344c-4.714844 0-8.535156 3.820312-8.535156 8.535156v51.199219c0 4.710937 3.820312 8.53125 8.535156 8.53125h28.527344l-20.175781 20.175781c-3.328126 3.332031-3.328126 8.734375 0 12.066406l36.210937 36.207031c3.332031 3.328126 8.730469 3.328126 12.066406 0l20.171875-20.175781v28.527344c0 4.714844 3.820313 8.535156 8.53125 8.535156h51.199219c4.714844 0 8.535156-3.820312 8.535156-8.535156v-28.527344l20.171875 20.175781c3.332032 3.328126 8.734375 3.328126 12.066406 0l36.207032-36.207031c3.332031-3.332031 3.332031-8.734375 0-12.066406l-20.171875-20.175781h28.527343c4.710938 0 8.53125-3.820313 8.53125-8.53125v-51.199219c0-4.714844-3.820312-8.535156-8.53125-8.535156zm-8.535156 51.199219h-30.054687c-3.613281 0-6.835938 2.273437-8.046875 5.675781-.800782 2.257812-1.722656 4.472656-2.753906 6.632812-1.546876 3.265625-.863282 7.15625 1.703124 9.699219l21.234376 21.265625-24.140626 24.140625-21.257812-21.265625c-2.546875-2.570313-6.441406-3.253906-9.710938-1.707031-2.15625 1.035156-4.367187 1.953125-6.621093 2.75-3.40625 1.207031-5.683594 4.425781-5.683594 8.039062v30.105469h-34.132813v-30.054687c0-3.613282-2.269531-6.835938-5.675781-8.046876-2.257812-.804687-4.46875-1.722656-6.628906-2.757812-3.269531-1.542969-7.15625-.859375-9.703125 1.707031l-21.265625 21.230469-24.140625-24.140625 21.253906-21.253906c2.574219-2.550781 3.257813-6.441407 1.707032-9.710938-1.03125-2.160156-1.949219-4.371093-2.746094-6.625-1.210938-3.414062-4.441406-5.691406-8.0625-5.683593h-30.074219v-34.132813h30.054687c3.613282.003906 6.835938-2.269531 8.046876-5.671875.804687-2.257812 1.722656-4.472656 2.757812-6.632812 1.542969-3.269532.859375-7.15625-1.707031-9.703126l-21.230469-21.261718 24.140625-24.140625 21.253906 21.253906c2.550781 2.570313 6.441407 3.253906 9.710938 1.707031 2.160156-1.03125 4.371093-1.949218 6.625-2.746094 3.414062-1.210937 5.691406-4.445312 5.683593-8.066406v-30.070312h34.132813v30.054687c-.003906 3.613281 2.269531 6.835938 5.671875 8.046875 2.257812.800782 4.472656 1.722656 6.632812 2.757813 3.269532 1.542969 7.15625.859375 9.703126-1.707031l21.261718-21.230469 24.140625 24.140625-21.261719 21.253906c-2.574218 2.546875-3.257812 6.441406-1.707031 9.710938 1.03125 2.15625 1.949219 4.367187 2.746094 6.621093 1.207031 3.40625 4.425781 5.683594 8.039063 5.683594h30.105468zm0 0"/><path d="m452.265625 187.734375h-22.050781l-.433594-1.050781 15.589844-15.589844c3.332031-3.332031 3.332031-8.734375 0-12.066406l-24.132813-24.132813c-3.382812-3.203125-8.679687-3.203125-12.066406 0l-15.589844 15.589844-1.050781-.433594v-22.050781c0-4.714844-3.820312-8.535156-8.53125-8.535156h-34.132812c-4.714844 0-8.535157 3.820312-8.535157 8.535156v22.050781l-1.046875.433594-15.59375-15.589844c-3.332031-3.332031-8.734375-3.332031-12.066406 0l-24.128906 24.132813c-3.332032 3.332031-3.332032 8.734375 0 12.066406l15.589844 15.589844-.4375 1.050781h-22.050782c-4.710937 0-8.53125 3.820313-8.53125 8.53125v34.132813c0 4.714843 3.820313 8.535156 8.53125 8.535156h22.050782l.4375 1.050781-15.589844 15.589844c-3.332032 3.332031-3.332032 8.734375 0 12.066406l24.128906 24.132813c3.386719 3.199218 8.683594 3.199218 12.066406 0l15.59375-15.59375 1.046875.4375v22.050781c0 4.710937 3.820313 8.53125 8.535157 8.53125h34.132812c4.710938 0 8.53125-3.820313 8.53125-8.53125v-22.050781l1.050781-.4375 15.589844 15.59375c3.332031 3.328124 8.734375 3.328124 12.066406 0l24.132813-24.132813c3.332031-3.332031 3.332031-8.734375 0-12.066406l-15.589844-15.589844.433594-1.050781h22.050781c4.714844 0 8.535156-3.820313 8.535156-8.535156v-34.132813c0-4.710937-3.820312-8.53125-8.535156-8.53125zm-8.53125 34.132813h-19.578125c-3.773438 0-7.097656 2.484374-8.171875 6.101562-.996094 3.367188-2.339844 6.625-4.003906 9.71875-1.796875 3.320312-1.199219 7.425781 1.46875 10.09375l13.824219 13.824219-12.066407 12.066406-13.824219-13.824219c-2.671874-2.667968-6.777343-3.265625-10.09375-1.46875-3.09375 1.667969-6.351562 3.007813-9.722656 4.003906-3.617187 1.074219-6.097656 4.402344-6.101562 8.175782v19.574218h-17.066406v-19.574218c0-3.773438-2.480469-7.101563-6.101563-8.175782-3.367187-.996093-6.625-2.339843-9.71875-4.003906-3.316406-1.796875-7.425781-1.199218-10.09375 1.46875l-13.824219 13.824219-12.066406-12.066406 13.824219-13.824219c2.667969-2.667969 3.265625-6.773438 1.46875-10.09375-1.664063-3.09375-3.007813-6.351562-4.003907-9.71875-1.074218-3.617188-4.398437-6.101562-8.171874-6.101562h-19.578126v-17.066407h19.578126c3.773437-.003906 7.097656-2.484375 8.171874-6.101562.996094-3.371094 2.339844-6.625 4.003907-9.71875 1.796875-3.320313 1.199219-7.425781-1.46875-10.097657l-13.824219-13.824218 12.066406-12.066406 13.824219 13.824218c2.671875 2.671875 6.777344 3.265625 10.09375 1.46875 3.09375-1.664062 6.351563-3.003906 9.71875-4 3.621094-1.078125 6.101563-4.402344 6.101563-8.175781v-19.574219h17.066406v19.574219c.003906 3.773437 2.484375 7.097656 6.101562 8.175781 3.371094.996094 6.628906 2.335938 9.722656 4 3.316407 1.796875 7.421876 1.203125 10.09375-1.46875l13.824219-13.824218 12.066407 12.066406-13.824219 13.824218c-2.667969 2.671876-3.265625 6.777344-1.46875 10.097657 1.664062 3.09375 3.003906 6.347656 4.003906 9.71875 1.074219 3.617187 4.398437 6.097656 8.171875 6.101562h19.578125zm0 0"/><path d="m366.933594 179.199219c-18.851563 0-34.132813 15.28125-34.132813 34.132812 0 18.851563 15.28125 34.136719 34.132813 34.136719 18.851562 0 34.132812-15.285156 34.132812-34.136719 0-18.851562-15.28125-34.132812-34.132812-34.132812zm0 51.199219c-9.425782 0-17.066406-7.640626-17.066406-17.066407s7.640624-17.066406 17.066406-17.066406c9.425781 0 17.066406 7.640625 17.066406 17.066406s-7.640625 17.066407-17.066406 17.066407zm0 0"/></g></svg>