<svg id="Capa_1" enable-background="new 0 0 512 512" viewBox="0 0 512 512" xmlns="http://www.w3.org/2000/svg"><path d="m415 345.667v-86.029c33.116-4.711 58.667-33.24 58.667-67.637s-25.551-62.927-58.667-67.638v-85.964h-144v-38.399h-30v38.399h-144v85.964c-33.115 4.712-58.666 33.24-58.666 67.637s25.55 62.925 58.666 67.637v86.029h85.333v32.666h-111.999v133.668h371.333v-133.668h-112v-32.666h85.333zm-3.333 136.333h-311.333v-73.668h88.259c11.436 25.884 37.339 44.001 67.407 44.001s55.971-18.117 67.407-44.001h88.26zm-112-103.333c0 24.078-19.589 43.667-43.667 43.667s-43.667-19.589-43.667-43.667v-33h87.334zm-202.668-149.569c-16.472-4.296-28.665-19.299-28.665-37.098s12.193-32.802 28.666-37.098v74.196zm30-160.699h258v147.463c-17.255 22.436-44.331 35.804-72.666 35.804h-86.334v30h86.334c26.342 0 51.866-8.706 72.666-24.151v58.151h-258zm288.001 86.503c16.473 4.295 28.667 19.298 28.667 37.098s-12.194 32.803-28.667 37.098z"/><path d="m309.333 207c25.916 0 47-21.084 47-47s-21.084-47-47-47h-106.666c-25.916 0-47 21.084-47 47s21.084 47 47 47zm-106.666-64h106.667c9.374 0 17 7.626 17 17s-7.626 17-17 17h-106.667c-9.374 0-17-7.626-17-17s7.625-17 17-17z"/></svg>