<svg enable-background="new 0 0 100 100" viewBox="0 0 100 100" xmlns="http://www.w3.org/2000/svg"><path d="m39.4924278 59.2136497c.816124 5.0754128 5.2138939 8.9691734 10.5158691 8.9691734 5.3020325 0 9.6998672-3.8937607 10.5159264-8.9692955-1.8718338-1.3025932-1.7875214-3.0939445-1.7875214-3.0939445v-5.5478058h-17.4566879v5.5478058s.0843735 1.7914124-1.7875862 3.0940666z" fill="#d6b24e"/><path d="m63.7651711 28.7885551c-.0029984 0-.0058823.9516068-.0087662.9516068-.1857834-7.566452-6.2976875-14.6489916-13.7480087-14.6489916s-13.5623436 7.0825396-13.7480125 14.6489916c-.0028839 0-.005764-.9516068-.0087624-.9516068-1.5190125 0-2.7502975 3.4323959-2.7502975 6.4941711s1.2312851 5.5434875 2.7502975 5.5434875v.1979141c0 3.782074 3.2947235 8.56744 6.6593323 12.4680634 3.7515144 4.3492203 10.4432526 4.3492203 14.194767 0 3.3647232-3.9006233 6.6594505-8.6859894 6.6594505-12.4680634v-.1979141c1.5188942 0 2.7502937-2.4817123 2.7502937-5.5434875s-1.2313996-6.4941711-2.7502937-6.4941711z" fill="#ffd25a"/><path d="m53.4597931 60.6592522 7.4914322 3.682949-7.7823334 22.8176728-2.2889213-5.23909-.2034607-18.4130974z" fill="#e6e7e8"/><path d="m90.3773575 89.8869476c-.2722855-8.9935684-.3733521-18.224617-4.1148682-22.9239426-3.7136765-4.6641121-22.1923676-8.7307892-22.1923676-8.7307892l-3.4128799 3.8097916-.4444313 1.9366188-1.7303352 7.5878563-2.0319328 8.9689407-2.7596245 9.3515244z" fill="#344e5c"/><path d="m58.7619057 55.5100937-8.7626686 4.563282 6.8351631 4.2688255z" fill="#dad7dc"/><path d="m46.538681 60.6592522-7.4914322 3.682949 7.7823334 22.8176728 2.2889214-5.23909.2034607-18.4130974z" fill="#e6e7e8"/><path d="m46.338665 89.8869476-2.7938919-9.3515244-2.0636597-9.0641174-1.6984749-7.4926796-.4445648-1.9366188-3.4128799-3.8097916s-18.4784241 4.0668106-22.1921005 8.7307892c-3.7415199 4.6990585-3.842721 13.9302368-4.1104507 22.9239426z" fill="#344e5c"/><path d="m41.2365685 55.5100937 8.7626686 4.563282-6.8351632 4.2688255z" fill="#dad7dc"/><path d="m46.9315529 89.8869476h6.1356888l.3815155-.7196579-1.8790589-23.9488067 1.6265908-3.1408692-3.1969567-1.9911041-3.1969604 1.9911041 1.6264572 3.1408692-1.8787918 23.9488067z" fill="#f37735"/><g fill="#293b44"><path d="m34.5755692 72.9301605 8.7734947 16.9567871h5.3895302l-7.4887963-34.3715171-5.3280868 2.7202644-1.9070359 9.9271469 4.487011 2.4677963z"/><path d="m56.6495972 89.8869476 8.7734985-16.9567871-3.9259872-2.2995224 4.4868774-2.4677963-1.9069061-9.9271469-5.3283501-2.7202644-7.4886627 34.3715171z"/><path d="m25.8078289 89.8869476.5450974-10.0817566-1.097826 10.0817566z"/><path d="m74.7402115 89.8869476-1.0978241-10.0817566.5450973 10.0817566z"/></g><path d="m64.6257706 34.3068047h-3.5233803c-.2702751-1.5035667-1.5816422-2.6506596-3.1621742-2.6506596h-3.0985489c-1.2165527 0-2.265007.6862812-2.8126411 1.684309-1.2007866-.7876968-2.8428612-.7920036-4.0468407-.0100021-.5490265-.9924698-1.5943565-1.6743069-2.8068085-1.6743069h-3.0985489c-1.5805321 0-2.8922462 1.1470928-3.1626625 2.6506596h-3.5228882v1.1380615h3.5228882c.2704163 1.5035667 1.5821304 2.6506577 3.1626625 2.6506577h3.0985489c1.7754402 0 3.2196884-1.4448013 3.2196884-3.2196884 0-.1343384-.0236168-.2622871-.0396614-.3923187.9225883-.805481 2.3882332-.8017273 3.3043633.0133362-.0150032.1258621-.0383453.2492294-.0383453.3789825 0 1.7748871 1.4448051 3.2196884 3.2202454 3.2196884h3.0985489c1.5805321 0 2.8918991-1.1470909 3.1621742-2.6506577h3.5233803v-1.1380615zm-19.4503937 2.6506576h-3.0985489c-1.1480637 0-2.0821838-.9335632-2.0821838-2.0816269s.9341202-2.0816307 2.0821838-2.0816307h3.0985489c1.1480637 0 2.0816269.933567 2.0816269 2.0816307s-.9335632 2.0816269-2.0816269 2.0816269zm12.7648392 0h-3.0985489c-1.1480598 0-2.0821838-.9335632-2.0821838-2.0816269s.934124-2.0816307 2.0821838-2.0816307h3.0985489c1.1480637 0 2.0816307.933567 2.0816307 2.0816307s-.9335671 2.0816269-2.0816307 2.0816269z" fill="#344e5c"/><path d="m33.8470573 32.9780121c.5188293 1.9715309 1.6065407 3.4831619 1.7485008 6.8413124h.8834763c-.2397537-1.4382858-.5879097-5.0459938.5879059-10.5052948 0 0 18.7469254 1.5207615 22.5392876-7.4391365 0 0 2.8868332-.3330479 3.2199974 4.6633549.333046 4.9964046.2219925 6.439764 1.2212524 7.2170277l-.497036 6.0640488h.6280403c.3237076-1.6901474 1.2056808-5.8894501 2.0896149-6.5082626 0 0 2.8868408-13.9898415-3.2198792-16.6546822 0 0-2.1095695-9.2155437-16.3215179-5.7734385-14.2120628 3.4418755-13.6569061 13.212575-13.6569061 13.212575s.2221069 6.7730426.7772636 8.8824958z" fill="#344e5c"/><path d="m78.295639 51.6538162h-56.5912513c-1.7745972 0-3.1613159 1.5319824-2.9852295 3.2978516l3.494751 35.0352783h55.5722084l3.494751-35.0352783c.1761474-1.7658692-1.2106324-3.2978516-2.9852296-3.2978516z" fill="#ececec"/><circle cx="50" cy="71.022" fill="#dad7dc" r="5.772"/></svg>