<svg  viewBox="0 0 496 496" xmlns="http://www.w3.org/2000/svg"><g fill="#ff826e"><path d="m312 168h32v128h-32zm0 0"/><path d="m232 200h32v96h-32zm0 0"/><path d="m152 232h32v64h-32zm0 0"/></g><path d="m487.441406 232h-80.242187c-8-80.878906-76.238281-144-159.199219-144v-80c127.199219 0 231.199219 98.878906 239.441406 224zm0 0" fill="#fcd770"/><path d="m248 8v80c-88.398438 0-160 71.601562-160 160 0 16.71875 2.558594 32.878906 7.359375 48 18.800781 60 72.082031 104.800781 136.640625 111.199219v80.242187c-125.121094-8.242187-224-112.242187-224-239.441406 0-132.558594 107.441406-240 240-240zm0 0" fill="#48cfad"/><path d="m400.558594 296c3.28125-10.238281 5.519531-20.960938 6.640625-32h80.242187c-2.082031 31.121094-10.082031 60.640625-22.882812 87.359375v.082031c-14.480469-14.480468-34.480469-23.441406-56.558594-23.441406-8.238281 0-16.238281 1.28125-23.679688 3.601562 6.800782-11.042968 12.320313-22.960937 16.238282-35.601562zm0 0" fill="#e6e9ed"/><path d="m351.441406 464.558594h-.082031c-26.71875 12.800781-56.238281 20.800781-87.359375 22.882812v-80.242187c24.640625-2.480469 47.519531-10.558594 67.601562-22.878907-2.320312 7.441407-3.601562 15.441407-3.601562 23.679688 0 22.078125 8.960938 42.078125 23.441406 56.558594zm0 0" fill="#e6e9ed"/><path d="m464.558594 351.441406c14.480468 14.480469 23.441406 34.480469 23.441406 56.558594 0 44.160156-35.839844 80-80 80-22.078125 0-42.078125-8.960938-56.558594-23.441406-14.480468-14.480469-23.441406-34.480469-23.441406-56.558594 0-8.238281 1.28125-16.238281 3.601562-23.679688 7.757813-25.121093 27.597657-44.960937 52.71875-52.71875 7.441407-2.320312 15.441407-3.601562 23.679688-3.601562 22.078125 0 42.078125 8.960938 56.558594 23.441406zm0 0" fill="#fcd770"/><path d="m408 384c4.40625 0 8 3.585938 8 8h16c0-10.414062-6.710938-19.214844-16-22.527344v-17.472656h-16v17.472656c-9.289062 3.3125-16 12.113282-16 22.527344 0 13.230469 10.769531 24 24 24 4.40625 0 8 3.585938 8 8s-3.59375 8-8 8-8-3.585938-8-8h-16c0 10.414062 6.710938 19.214844 16 22.527344v17.472656h16v-17.472656c9.289062-3.3125 16-12.113282 16-22.527344 0-13.230469-10.769531-24-24-24-4.40625 0-8-3.585938-8-8s3.59375-8 8-8zm0 0"/><path d="m473.953125 349.9375c12.230469-27.066406 19.488281-55.761719 21.445313-85.410156l.554687-8.527344h-96.007813l-.714843 7.207031c-.839844 8.441407-2.375 16.714844-4.582031 24.792969h-42.648438v-128h-48v128h-32v-96h-48v96h-32v-64h-48v64h-42.640625c-3.4375-12.769531-5.359375-26.160156-5.359375-40 0-83.816406 68.183594-152 152-152 78.472656 0 143.488281 58.808594 151.230469 136.792969l.714843 7.207031h96.007813l-.5625-8.527344c-8.550781-129.800781-117.222656-231.472656-247.390625-231.472656-136.742188 0-248 111.257812-248 248 0 130.175781 101.671875 238.839844 231.472656 247.390625l8.527344.5625v-96l-7.207031-.722656c-58.351563-5.796875-105.953125-43.664063-126.226563-95.230469h282.714844c-2.890625 7.222656-6.394531 14.238281-10.425781 21.0625-25.085938 8.847656-44.953125 28.707031-53.792969 53.792969-19.125 11.3125-39.910156 18.199219-61.855469 20.375l-7.207031.722656v96l8.519531-.5625c29.664063-1.949219 58.351563-9.199219 85.410157-21.4375 15.519531 13.671875 35.8125 22.046875 58.070312 22.046875 48.519531 0 88-39.480469 88-88 0-22.257812-8.375-42.550781-22.046875-58.0625zm4.75-125.9375h-64.421875c-11.359375-79.953125-77.59375-139.871094-158.28125-143.640625v-64.167969c115.34375 3.960938 210.894531 93.144532 222.703125 207.808594zm-254.703125 190.289062v64.414063c-117.320312-12.0625-208-111.792969-208-230.703125 0-125.238281 99.769531-227.558594 224-231.800781v64.199219c-88.910156 4.226562-160 77.664062-160 167.601562 0 84.296875 61.40625 154.542969 144 166.289062zm96-238.289062h16v112h-16zm-80 32h16v80h-16zm-80 32h16v48h-16zm254.28125 32h64.421875c-2.351563 22.886719-8.269531 45.054688-17.261719 66.246094-14.832031-11.390625-33.328125-18.246094-53.441406-18.246094-2.863281 0-5.6875.160156-8.480469.433594 7.402344-15.363282 12.351563-31.570313 14.761719-48.433594zm-142.28125 142.28125c16.871094-2.410156 33.078125-7.359375 48.433594-14.761719-.273438 2.792969-.433594 5.617188-.433594 8.480469 0 20.113281 6.855469 38.609375 18.246094 53.441406-21.191406 8.992188-43.359375 14.910156-66.246094 17.253906zm136 65.71875c-39.695312 0-72-32.296875-72-72s32.304688-72 72-72 72 32.296875 72 72-32.304688 72-72 72zm0 0"/><path d="m160 192h16v16h-16zm0 0"/><path d="m160 160h16v16h-16zm0 0"/><path d="m240 160h16v16h-16zm0 0"/><path d="m240 128h16v16h-16zm0 0"/></svg>